# xmcd
#
# Track frame offsets:
#	150
#	15213
#	28964
#	42504
#	60811
#	78020
#	93604
#	112882
#	127537
#	146827
#	167980
#
# Disc length: 2401 seconds
#
# Revision: 0
# Processed by: cddbd v1.5.2PL0 Copyright (c) Steve Scherf et al.
# Submitted via: EasyCDDAExtractor 8.2.3.1
#
DISCID=7e095f0b
DTITLE=Dale Watson - Every Song I Write Is For You
DYEAR=2001
DGENRE=Country
TTITLE0=Every Song I Write Is For You
TTITLE1=You're The Best Part Of Me
TTITLE2=I'd Deal With The Devil
TTITLE3=One More For Her
TTITLE4=I See Your Face In Every Face
TTITLE5=If I Knew Then What I Know Now
TTITLE6=Your Love I'm Gonna Miss
TTITLE7=Money Can't Buy Her Love
TTITLE8=I See My Future
TTITLE9=Our First Times And Our Last Times
TTITLE10=Hey Chico
EXTD=
EXTT0=
EXTT1=
EXTT2=
EXTT3=
EXTT4=
EXTT5=
EXTT6=
EXTT7=
EXTT8=
EXTT9=
EXTT10=
PLAYORDER=
